<svg height="512" viewBox="0 0 48 48" width="512" xmlns="http://www.w3.org/2000/svg"><g id="Line"><path d="m17 4a1 1 0 0 0 -1 1v3h16v-3a1 1 0 0 0 -2 0v2.27l-5-2.85v-1.42a1 1 0 0 0 -2 0v1.42l-5 2.85v-2.27a1 1 0 0 0 -1-1z"/><path d="m31 45v-21h-14v21a1 1 0 0 0 1 1h12a1 1 0 0 0 1-1zm-4-3h-6a1 1 0 0 1 0-2h6a1 1 0 0 1 0 2zm0-14v9a1 1 0 0 1 -2 0v-9h-2v9a1 1 0 0 1 -2 0v-9a1 1 0 0 1 0-2h6a1 1 0 0 1 0 2z"/><path d="m24 19a3 3 0 1 0 -3-3 3 3 0 0 0 3 3zm-1-4a1 1 0 0 1 2 0 1 1 0 0 1 0 2h-1a1 1 0 0 1 -1-1z"/><path d="m16 22h16v-12h-16zm8-11a5 5 0 1 1 -5 5 5 5 0 0 1 5-5z"/></g></svg>
