<svg id="Layer_1" enable-background="new 0 0 480 480" height="512" viewBox="0 0 480 480" width="512" xmlns="http://www.w3.org/2000/svg"><g><path d="m258.019 62h-36.038c-4.439 0-8.042-3.613-7.997-8.052.048-4.622.054-9.248.016-13.878-.041-4.423 3.544-8.07 8-8.07h10v-23.728c0-4.262 3.218-7.982 7.471-8.255 4.66-.299 8.529 3.388 8.529 7.983v24h10c4.458 0 8.041 3.65 8 8.07-.038 4.63-.032 9.256.016 13.878.045 4.439-3.558 8.052-7.997 8.052z"/><path d="m272.728 94h-5.238c1.511 23.713 4.146 47.317 7.898 70.743.778 4.858-2.973 9.257-7.893 9.257h-54.989c-4.92 0-8.671-4.399-7.893-9.257 3.752-23.426 6.387-47.03 7.898-70.743h-5.238c-4.262 0-7.982-3.218-8.255-7.471-.3-4.66 3.387-8.529 7.982-8.529h66c4.595 0 8.282 3.869 7.983 8.529-.273 4.253-3.993 7.471-8.255 7.471z"/><path d="m418 472c0 4.42-3.58 8-8 8h-122c-4.42 0-8-3.58-8-8s3.58-8 8-8h16.49c-3.94-30.98-30.46-55-62.49-55s-58.55 24.02-62.49 55h12.49c4.42 0 8 3.58 8 8s-3.58 8-8 8h-122c-4.42 0-8-3.58-8-8s3.58-8 8-8h16.73c23.54-35.02 43.98-71.79 61.2-110h-4.93c-4.42 0-8-3.58-8-8s3.58-8 8-8h194c4.42 0 8 3.58 8 8s-3.58 8-8 8h-4.93c17.22 38.21 37.66 74.98 61.2 110h16.73c4.42 0 8 3.58 8 8z"/><path d="m254 306.406v7.594c0 4.418-3.582 8-8 8h-12c-4.418 0-8-3.582-8-8v-8c0-7.954 6.666-14.379 14.705-13.983 7.52.371 13.295 6.859 13.295 14.389z"/><path d="m306.867 322h-28.867c-4.418 0-8-3.582-8-8v-7.361c0-16.322-12.772-30.138-29.087-30.626-16.955-.506-30.913 13.144-30.913 29.987v8c0 4.418-3.582 8-8 8h-28.867c-5.597 0-9.452-5.595-7.473-10.83 12.96-34.286 23.378-69.445 31.16-105.17h-7.548c-4.262 0-7.982-3.218-8.255-7.471-.299-4.66 3.388-8.529 7.983-8.529h101.728c4.262 0 7.982 3.218 8.255 7.471.299 4.66-3.388 8.529-7.983 8.529h-7.82c7.77 35.671 18.18 70.832 31.16 105.17 1.979 5.235-1.876 10.83-7.473 10.83z"/></g></svg>
